<mxfile host="app.diagrams.net" modified="2023-10-15T11:40:21.614Z" agent="Mozilla/5.0 (Macintosh; Intel Mac OS X 10_15_7) AppleWebKit/605.1.15 (KHTML, like Gecko) Version/16.6 Safari/605.1.15" version="22.0.4" etag="YgeSSGeGS7WYYqkRIio0" type="github">
  <diagram name="Seite-1" id="9gG5hv7-dWCwAjw1B-0U">
    <mxGraphModel>
      <root>
        <mxCell id="0" />
        <mxCell id="1" parent="0" />
      </root>
    </mxGraphModel>
  </diagram>
</mxfile>
